<svg width="250" height="230" viewBox="0 0 250 230" fill="none" xmlns="http://www.w3.org/2000/svg">
<path d="M125 0C57.16 0 0 11.63 0 114.99C0 218.35 54.6 230 125 230C195.4 230 250 218.35 250 114.99C250 11.63 192.84 0 125 0ZM125 180C107.855 180 95 167.88 95 153.635C95 152.4 95.105 151.19 95.29 150H154.71C154.895 151.19 155 152.405 155 153.635C155 167.88 142.145 180 125 180ZM165 150C165 150 164.75 111.205 153.825 87.76C143.07 64.68 128.03 65 125 65C121.97 65 106.925 64.675 96.175 87.76C85.25 111.205 85 150 85 150H60C60 150 62.89 100.4 82.285 73.515C100.625 48.095 118.385 50.02 125 50.04C131.62 50.02 149.375 48.095 167.715 73.515C187.11 100.4 190 150 190 150H165Z" fill="#003BAF"/>
</svg>
